<?xml version="1.0" standalone="no"?>
<!DOCTYPE svg PUBLIC "-//W3C//DTD SVG 20010904//EN"
 "http://www.w3.org/TR/2001/REC-SVG-20010904/DTD/svg10.dtd">
<svg version="1.0" xmlns="http://www.w3.org/2000/svg"
 width="69.000000pt" height="100.000000pt" viewBox="0 0 69.000000 100.000000"
 preserveAspectRatio="xMidYMid meet">

<g transform="translate(0.000000,100.000000) scale(0.100000,-0.100000)"
fill="#666666" stroke="none">
<path d="M199 861 l-46 -58 50 -23 c63 -29 135 -100 167 -165 33 -68 40 -193
14 -265 -26 -71 -81 -140 -144 -178 -59 -35 -60 -41 -2 -16 l37 15 43 -46 c47
-52 48 -52 27 25 -8 30 -15 58 -15 63 0 15 27 6 73 -23 26 -17 50 -30 52 -30
2 0 -12 27 -32 61 -45 76 -38 86 47 64 34 -9 64 -14 66 -12 3 2 -20 23 -50 46
-39 29 -54 46 -49 57 5 14 18 15 87 10 l81 -7 -78 46 c-43 26 -76 52 -74 58 2
7 37 24 78 39 l74 27 -55 2 c-136 4 -151 27 -53 82 l68 38 -50 -6 c-27 -3 -67
-8 -87 -11 -51 -8 -49 8 8 74 25 28 43 52 41 52 -3 0 -35 -14 -72 -31 -43 -20
-70 -28 -76 -22 -6 6 -1 34 15 78 l25 68 -54 -53 c-45 -45 -55 -50 -73 -41
-19 10 -19 14 -7 73 8 35 13 64 12 65 -1 1 -23 -24 -48 -56z"/>
</g>
</svg>
