<?xml version="1.0" encoding="utf-8"?>
<!-- Generator: Adobe Illustrator 16.0.0, SVG Export Plug-In . SVG Version: 6.00 Build 0)  -->
<!DOCTYPE svg PUBLIC "-//W3C//DTD SVG 1.1//EN" "http://www.w3.org/Graphics/SVG/1.1/DTD/svg11.dtd">
<svg version="1.1" id="Capa_1" xmlns="http://www.w3.org/2000/svg" xmlns:xlink="http://www.w3.org/1999/xlink" x="0px" y="0px"
	 width="910px" height="100px" viewBox="0 0 910 100" enable-background="new 0 0 910 100" xml:space="preserve">
<g>
	<path fill="#252525" fill-opacity="0.3" d="M910,2.429C746.904,12.857,724.729,60.636,522.127,60.636
		c-227.5,0-227.5-60.214-455-60.214C42.229,0.421,20.048,1.143,0,2.429V100h910V2.429z"/>
	<path fill="#252525" fill-opacity="0.5" d="M0,17.364c30.897-4.064,67.226-6.607,112.627-6.607c227.5,0,227.5,63.743,455,63.743
		C749.719,74.5,786.084,33.671,910,17.357V100H0V17.364z"/>
	<path fill="#252525" d="M910,36.97V100H0V36.97c25.74-1.61,55.15-2.56,89.88-2.57c227.5,0,227.5,40.72,455,40.72
		C737.65,75.12,767.1,45.89,910,36.97z"/>
</g>
</svg>
